<svg width="537" height="130" viewBox="0 0 537 130" fill="none" xmlns="http://www.w3.org/2000/svg">
<path d="M315.794 0C325.357 8.2952e-06 333.882 1.60085 341.371 4.80176C348.975 8.00276 355.428 12.5582 360.728 18.4678C366.027 24.3772 370.06 31.2712 372.825 39.1504C375.59 46.9067 376.973 55.4021 376.973 64.6357C376.973 73.9924 375.59 82.6109 372.825 90.4902C370.06 98.3694 366.027 105.202 360.728 110.988C355.543 116.775 349.148 121.269 341.544 124.47C333.94 127.671 325.357 129.271 315.794 129.271H262.91V0H315.794ZM443.817 64.7344H401.695V84.7666H437.861V96.0283H401.695V118.01H443.817V129.271H390V53.4727H443.817V64.7344ZM499.538 83.0723L520.724 53.4727H535.125L506.234 91.6201L536.316 129.271H520.94L497.953 99.2266L475.569 129.271H461.168L491.111 90.4658L461.709 53.4727H476.977L499.538 83.0723Z" fill="url(#paint0_linear_2025_1330)"/>
<path d="M262.758 75.8765V0H293.702C299.298 0 304.287 0.939424 308.669 2.81827C313.119 4.69712 316.894 7.37087 319.995 10.8395C323.096 14.3081 325.456 18.3549 327.074 22.9797C328.692 27.5323 329.501 32.5185 329.501 37.9383C329.501 43.4303 328.692 48.4887 327.074 53.1136C325.456 57.7384 323.096 61.749 319.995 65.1454C316.961 68.5418 313.22 71.1794 308.77 73.0582C304.321 74.9371 299.298 75.8765 293.702 75.8765H262.758Z" fill="white"/>
<path d="M180.785 74.7563V1.04492H191.421L242.387 61.3829L241.123 62.3307C240.772 60.4352 240.491 58.3994 240.281 56.2231C240.07 53.9767 239.86 51.6601 239.649 49.2732C239.509 46.8162 239.368 44.2889 239.228 41.6915C239.158 39.0238 239.087 36.3211 239.017 33.5832C239.017 30.8454 239.017 28.0724 239.017 25.2644V1.04492H250.39V74.7563H239.544L189.315 16.6296L190.052 15.1554C190.262 18.2442 190.473 21.0523 190.684 23.5795C190.894 26.0366 191.105 28.283 191.315 30.3189C191.526 32.3547 191.666 34.215 191.737 35.8999C191.877 37.5145 191.982 39.0238 192.052 40.4279C192.123 41.7617 192.158 42.9902 192.158 44.1134V74.7563H180.785Z" fill="white"/>
<path d="M118.967 75.8174C113.21 75.8174 107.945 74.8697 103.171 72.9743C98.3978 71.0788 94.2208 68.4112 90.6405 64.9713C87.0603 61.5314 84.2873 57.53 82.3217 52.9669C80.4262 48.3336 79.4785 43.3142 79.4785 37.9087C79.4785 32.5032 80.4262 27.5189 82.3217 22.9558C84.2873 18.3225 87.0603 14.286 90.6405 10.8461C94.2208 7.40624 98.3978 4.73859 103.171 2.84315C107.945 0.947718 113.21 0 118.967 0C124.653 0 129.883 0.947718 134.657 2.84315C139.501 4.73859 143.678 7.44134 147.188 10.9514C150.768 14.3913 153.541 18.4278 155.507 23.0611C157.472 27.6242 158.455 32.5734 158.455 37.9087C158.455 43.244 157.472 48.2283 155.507 52.8616C153.541 57.4247 150.768 61.4612 147.188 64.9713C143.678 68.4112 139.501 71.0788 134.657 72.9743C129.883 74.8697 124.653 75.8174 118.967 75.8174ZM118.967 64.7607C123.038 64.7607 126.759 64.0938 130.129 62.76C133.569 61.4261 136.517 59.5658 138.974 57.179C141.501 54.7219 143.432 51.8788 144.766 48.6495C146.17 45.35 146.872 41.7698 146.872 37.9087C146.872 34.0476 146.17 30.5025 144.766 27.2732C143.432 23.9737 141.501 21.1306 138.974 18.7438C136.517 16.2867 133.569 14.3913 130.129 13.0574C126.759 11.7236 123.038 11.0567 118.967 11.0567C114.895 11.0567 111.139 11.7236 107.699 13.0574C104.33 14.3913 101.381 16.2867 98.8541 18.7438C96.3268 21.1306 94.3963 23.9737 93.0625 27.2732C91.7286 30.5025 91.0617 34.0476 91.0617 37.9087C91.0617 41.7698 91.7286 45.35 93.0625 48.6495C94.3963 51.8788 96.3268 54.7219 98.8541 57.179C101.381 59.5658 104.33 61.4261 107.699 62.76C111.139 64.0938 114.895 64.7607 118.967 64.7607Z" fill="white"/>
<path d="M0 74.7563V1.04492H34.539C39.8041 1.04492 44.2268 1.74694 47.8071 3.15097C51.3874 4.55499 54.0901 6.66103 55.9153 9.46908C57.8108 12.2069 58.7585 15.5766 58.7585 19.5781C58.7585 23.5093 57.5651 26.9141 55.1782 29.7924C52.7914 32.6004 49.4217 34.5309 45.0692 35.584L45.3851 33.5832C48.6144 34.2852 51.5278 35.4787 54.1252 37.1635C56.7227 38.8483 58.7936 41.0246 60.338 43.6922C61.8825 46.3599 62.6547 49.4838 62.6547 53.0641C62.6547 56.855 61.9527 60.1544 60.5486 62.9625C59.2148 65.7003 57.3194 67.9468 54.8623 69.7018C52.4755 71.3866 49.7025 72.6503 46.5435 73.4927C43.3844 74.3351 39.9445 74.7563 36.2239 74.7563H0ZM11.3726 63.8049H36.0133C39.1021 63.8049 41.7347 63.4188 43.9109 62.6466C46.1574 61.8042 47.9124 60.5756 49.176 58.961C50.4396 57.2762 51.0714 55.2403 51.0714 52.8535C51.0714 50.3964 50.3343 48.3957 48.8601 46.8513C47.4561 45.3068 45.5606 44.1836 43.1738 43.4816C40.8572 42.7094 38.2948 42.3233 35.4868 42.3233H11.3726V63.8049ZM11.3726 31.3719H34.9602C37.2067 31.3719 39.2425 30.9507 41.0678 30.1083C42.9632 29.2658 44.4374 28.1075 45.4904 26.6333C46.6137 25.1591 47.1753 23.4742 47.1753 21.5788C47.1753 18.3495 45.9468 15.9627 43.4897 14.4183C41.0327 12.8036 37.7683 11.9963 33.6966 11.9963H11.3726V31.3719Z" fill="white"/>
<defs>
<linearGradient id="paint0_linear_2025_1330" x1="-85.3622" y1="-162.293" x2="1058.74" y2="243.725" gradientUnits="userSpaceOnUse">
<stop stop-color="white"/>
<stop offset="0.431703" stop-color="#6ECBAD"/>
<stop offset="1" stop-color="#1A4540"/>
</linearGradient>
</defs>
</svg>
